<?xml version="1.0" encoding="UTF-8"?><svg id="Layer_1" xmlns="http://www.w3.org/2000/svg" viewBox="0 0 231.73 231.73"><defs><style>.cls-1{fill:#ecebff;}.cls-2{fill:#7571a4;}</style></defs><circle class="cls-1" cx="115.87" cy="115.86" r="108.37"/><path class="cls-2" d="M222.63,70.76c-8.8-20.8-23.49-38.48-41.97-50.97C162.17,7.3,139.84,0,115.87,0,99.89,0,84.63,3.24,70.77,9.11c-20.81,8.8-38.48,23.48-50.98,41.97C7.3,69.56,0,91.89,0,115.86c0,15.98,3.24,31.24,9.11,45.11,8.8,20.8,23.48,38.48,41.97,50.97,18.48,12.49,40.82,19.79,64.79,19.79,15.98,0,31.24-3.24,45.1-9.11,20.8-8.8,38.48-23.48,50.97-41.97,12.49-18.48,19.8-40.82,19.79-64.79.01-15.97-3.24-31.23-9.1-45.1ZM208.81,155.12c-7.65,18.09-20.45,33.51-36.55,44.39-16.11,10.87-35.48,17.22-56.39,17.22-13.95,0-27.2-2.82-39.26-7.92-18.09-7.65-33.51-20.45-44.39-36.56-10.87-16.1-17.22-35.47-17.22-56.39,0-13.94,2.82-27.19,7.93-39.26,7.65-18.09,20.45-33.5,36.55-44.38,16.11-10.88,35.47-17.22,56.39-17.22,13.95,0,27.19,2.82,39.26,7.92,18.09,7.65,33.51,20.45,44.38,36.55,10.88,16.11,17.22,35.48,17.22,56.39,0,13.95-2.82,27.2-7.92,39.26Z"/><path class="cls-2" d="M136.86,111.27c-6.19-3.89-9.85-10.79-9.85-18.1v-33.06c0-1.76-1.42-3.18-3.17-3.18h-15.92c-1.76,0-3.18,1.42-3.18,3.18v33.06c0,7.4-3.72,14.18-9.96,18.16-4.17,2.67-6.65,7.21-6.65,12.16v65.29c0,2.05,1.67,3.7,3.71,3.7h48.03c2.85.11,3.85-.72,3.77-3.77v-65.22c0-4.99-2.53-9.56-6.77-12.22ZM131.09,178.12c0,2.15-1.74,3.9-3.9,3.9-1.07,0-2.04-.44-2.75-1.14-.7-.71-1.14-1.69-1.14-2.76v-48.42c0-2.16,1.74-3.9,3.89-3.9s3.9,1.74,3.9,3.9v48.42Z"/><path class="cls-2" d="M101.42,39.23h28.89c1.31,0,2.36,1.06,2.36,2.36v5.85c0,1.3-1.06,2.36-2.36,2.36h-28.89c-1.31,0-2.36-1.06-2.36-2.36v-5.85c0-1.3,1.06-2.36,2.36-2.36Z"/></svg>