<?xml version="1.0" encoding="UTF-8"?><svg id="Layer_1" xmlns="http://www.w3.org/2000/svg" viewBox="0 0 231.73 231.73"><defs><style>.cls-1{fill:#6d82bd;}.cls-2{fill:#d8e1f5;}</style></defs><circle class="cls-2" cx="115.87" cy="115.86" r="108.37"/><path class="cls-1" d="M224.23,115.86h-7.5c0,13.95-2.82,27.2-7.92,39.26-7.65,18.09-20.45,33.51-36.55,44.38-16.11,10.88-35.47,17.22-56.39,17.22-13.95,0-27.2-2.82-39.26-7.92-18.09-7.65-33.51-20.45-44.39-36.55-10.88-16.11-17.22-35.47-17.22-56.39,0-13.95,2.82-27.2,7.92-39.26,7.65-18.09,20.45-33.51,36.55-44.39,16.11-10.88,35.47-17.22,56.39-17.22,13.95,0,27.2,2.82,39.26,7.92,18.09,7.65,33.51,20.45,44.38,36.55,10.88,16.11,17.22,35.47,17.22,56.39h15c0-15.98-3.24-31.24-9.11-45.1-8.8-20.8-23.48-38.48-41.97-50.97C162.17,7.3,139.84,0,115.87,0c-15.98,0-31.24,3.24-45.1,9.11-20.8,8.8-38.48,23.48-50.97,41.97C7.3,69.56,0,91.89,0,115.86c0,15.98,3.24,31.24,9.11,45.1,8.8,20.8,23.48,38.48,41.97,50.97,18.48,12.49,40.82,19.8,64.79,19.79,15.98,0,31.24-3.24,45.1-9.11,20.8-8.8,38.48-23.48,50.97-41.97,12.49-18.48,19.8-40.82,19.79-64.79h-7.5Z"/><path class="cls-1" d="M180.73,75.51c-2.04-2.67-4.31-5.25-6.77-7.71-7.77-7.77-19.69-9.05-32.71-4.32-6.3,2.29-12.86,6-19.34,11.06-4.65-5.84-10.44-9.58-16.95-10.57-1.16-.19-2.35-.28-3.56-.28-.42,0-.86,0-1.28.02-31.97.49-58.42,19.8-63.43,44.94-.53,2.69-.82,5.44-.85,8.25-.03.3-.03.62,0,.92.3,29.01,28.92,52.62,64.28,53.15.42.03.86.03,1.28.03,8.02,0,15.08-3.99,20.6-10.97,8.65,3.79,17.44,5.67,25.88,5.67,13.29,0,25.54-4.62,34.52-13.57l.09-.12c.09-.08.18-.2.26-.29,18.56-18.98,17.14-51.4-2.02-76.21ZM127.19,131.21l-.06.24c-.06.21-.09.42-.09.63v.06c-.75,4.62-1.88,8.85-3.31,12.67l-.06.12c-.09.33-.21.59-.33.89-1.25,3.13-2.71,5.96-4.35,8.41-.27.21-.51.51-.66.86l-.03.12h-.03c-4.53,6.23-10.31,9.81-16.9,9.81l.03.03c-8.76,0-16.19-6.41-20.99-16.96-.09-.21-.21-.45-.27-.66l-.06-.09c-3.48-8.02-5.51-18.33-5.51-29.99,0-5.06.39-9.89,1.1-14.37l.03-.11c.03-.15.06-.33.06-.51.03-.09.03-.15.03-.24.57-3.16,1.28-6.14,2.15-8.94.09-.18.15-.39.18-.6,4.5-14.04,12.97-22.92,23.28-22.92,6.71,0,12.61,3.72,17.17,10.16.09.33.27.63.48.9.09.08.15.17.24.2l.09.12c1.66,2.75,3.24,5.79,4.53,9.3l.03.06c.09.24.18.48.24.72,2.59,7.39,4.02,16.31,4.02,26.23,0,4.89-.36,9.54-1.01,13.86ZM172.53,98.96c-.03.09-.09.18-.12.3-3.28,8.55-9.33,17.35-17.41,25.46-3.55,3.52-7.27,6.71-11.03,9.45-.09.06-.15.09-.24.18-2.62,1.88-5.45,3.6-8.35,5.12l-.05.03c-1.47.78-2.9,1.46-4.33,2.03.72-2.38,1.28-4.86,1.76-7.45,6.17-3.25,12.34-7.93,18.01-13.57,11.36-11.35,18.42-24.53,18.42-34.37,0-4.08-1.28-7.51-3.67-9.9-7.12-7.12-22.53-3.42-37.47,8.68-.83-1.94-1.76-3.76-2.77-5.46,11.78-9.26,23.64-13.66,32.99-12.67h.03c2.78.29,5.34,1.07,7.6,2.33,1.4.78,2.7,1.76,3.86,2.92,5.93,5.96,6.94,15.77,2.77,26.92Z"/></svg>