<svg width="51" height="45" viewBox="0 0 51 45" fill="none" xmlns="http://www.w3.org/2000/svg">
<path d="M33.9137 4.8308C29.6549 9.08961 29.2988 13.7338 30.6465 16.7898C30.7717 17.0719 30.7498 17.4179 30.4729 17.6628L8.06315 37.5755C6.16661 39.2608 6.25368 41.2663 8.10922 43.1219C9.96476 44.978 11.9697 45.0639 13.6545 43.1679L33.5683 20.7571C33.8143 20.4813 34.1587 20.4599 34.4418 20.5841C37.4973 21.9306 42.1409 21.5745 46.4003 17.3162C50.9001 12.817 51.9877 6.24816 48.485 2.74493C44.9813 -0.757726 38.4136 0.331553 33.9137 4.8308Z" fill="white"/>
<path d="M16.5232 20.3358C16.7816 20.1678 17.1058 20.1554 17.3513 20.4318L20.5068 23.9783L24.1976 20.6992L20.4365 17.3528C20.1607 17.1067 20.1725 16.7826 20.341 16.5247C22.3314 13.4703 21.2657 10.2845 18.4108 7.88686L9.25331 0.378756C8.65446 -0.108302 8.05561 -0.143694 7.53372 0.378194C7.01015 0.901767 7.01127 1.57702 7.53316 2.09891L15.1115 9.67555C15.6632 10.2283 15.6632 10.9395 15.1115 11.4912L15.0699 11.5333C14.5183 12.0844 13.8059 12.0844 13.2537 11.5333L5.6765 3.95557C5.15405 3.43368 4.4788 3.43312 3.95579 3.95613C3.43277 4.47914 3.43334 5.1544 3.95635 5.67572L11.533 13.2541C12.0858 13.8063 12.0858 14.518 11.533 15.0691L11.4925 15.1113C10.9409 15.6624 10.2286 15.6624 9.67633 15.1107L2.09856 7.53295C1.57611 7.01106 0.900858 7.00994 0.378408 7.53295C-0.144041 8.0554 -0.108088 8.65369 0.37897 9.25254L7.88708 18.41C10.2853 21.2655 13.4689 22.3267 16.5232 20.3358Z" fill="white"/>
<path d="M43.1691 37.5794L30.878 26.6428L26.8799 31.1421L37.58 43.168C39.2642 45.064 41.268 44.9752 43.1225 43.1208C44.9774 41.2692 45.0639 39.2642 43.1691 37.5794Z" fill="white"/>
</svg>
