<svg width="10" height="10" viewBox="0 0 10 10" fill="none" xmlns="http://www.w3.org/2000/svg">
<path d="M9 0H2.3465C2.14306 0.00067545 1.94461 0.0630793 1.77739 0.178961C1.61018 0.294843 1.48207 0.458746 1.41 0.649L0.0315007 4.3245C0.0105704 4.38064 -9.91784e-05 4.44009 6.94697e-07 4.5V5.5C6.94697e-07 6.0515 0.448501 6.5 1 6.5H3.806L3.245 8.1835C3.19498 8.33382 3.18132 8.49386 3.20514 8.65048C3.22895 8.8071 3.28956 8.95584 3.382 9.0845C3.57 9.3445 3.873 9.5 4.194 9.5H5C5.1485 9.5 5.289 9.434 5.3845 9.32L7.7345 6.5H9C9.5515 6.5 10 6.0515 10 5.5V1C10 0.4485 9.5515 0 9 0ZM4.7655 8.5H4.193L4.974 6.158C4.99902 6.08287 5.00584 6.00288 4.9939 5.9246C4.98196 5.84632 4.9516 5.772 4.90532 5.70775C4.85903 5.6435 4.79815 5.59116 4.72769 5.55504C4.65722 5.51893 4.57918 5.50006 4.5 5.5H1V4.5905L2.3465 1H7V5.819L4.7655 8.5ZM8 5.5V1H9L9.0005 5.5H8Z" fill="black"/>
</svg>
