<?xml version="1.0" encoding="UTF-8"?><svg id="Layer_1" xmlns="http://www.w3.org/2000/svg" viewBox="0 0 231.74 231.73"><defs><style>.cls-1{fill:#ebeef0;}.cls-2{fill:#9ca5a8;}.cls-3{fill:#9ca4a8;}</style></defs><circle class="cls-1" cx="115.87" cy="115.86" r="108.37"/><path class="cls-3" d="M222.63,70.76c-8.8-20.8-23.49-38.48-41.97-50.97C162.17,7.3,139.84,0,115.87,0,99.89,0,84.63,3.24,70.77,9.11c-20.81,8.8-38.48,23.48-50.97,41.97C7.3,69.56,0,91.89,0,115.86c0,15.98,3.25,31.24,9.11,45.11,8.8,20.8,23.48,38.48,41.97,50.97,18.49,12.49,40.82,19.79,64.79,19.79,15.98,0,31.24-3.24,45.1-9.11,20.8-8.8,38.48-23.48,50.97-41.97,12.5-18.48,19.8-40.82,19.8-64.79,0-15.97-3.25-31.23-9.11-45.1ZM208.81,155.12c-7.65,18.09-20.45,33.51-36.55,44.39-16.11,10.87-35.47,17.22-56.39,17.22-13.95,0-27.2-2.82-39.26-7.92-18.09-7.65-33.51-20.45-44.38-36.56-10.88-16.1-17.22-35.47-17.23-56.39,0-13.94,2.83-27.19,7.93-39.26,7.65-18.09,20.45-33.5,36.55-44.38,16.11-10.88,35.47-17.22,56.39-17.22,13.95,0,27.2,2.82,39.26,7.92,18.09,7.65,33.51,20.45,44.38,36.55,10.88,16.11,17.22,35.48,17.23,56.39-.01,13.95-2.83,27.2-7.93,39.26Z"/><path class="cls-2" d="M169.67,126.65c-.56-20.48-6.1-39.35-16.64-56.61-5.22-8.53-11.55-15.49-19.03-20.87-5.47-3.94-11.49-5.91-18.07-5.92-6.59,0-12.6,1.96-18.07,5.89-7.48,5.37-13.84,12.33-19.07,20.84-10.56,17.24-16.13,36.11-16.72,56.59-.13,4.68.39,10.21,1.55,16.58,4.25,23.33,20.46,40.66,44.03,44.83,1.87.33,4.59.5,8.18.5s6.31-.16,8.18-.49c23.57-4.13,39.81-21.44,44.09-44.75,1.18-6.37,1.7-11.9,1.57-16.59ZM151.27,126.54c-.86,8.94-2.57,17.06-6.86,25.03-1.47,2.73-2.97,4.82-4.5,6.26-1.71,1.59-4.43,2.3-6.25.41-1.29-1.35-1.31-2.9-.06-4.7,4.39-6.3,7.22-13.1,8.49-20.4.77-4.47.96-9.75.56-15.85-.04-.59.07-1.88.32-3.87.03-.21.1-.42.21-.61.83-1.31,2.1-2.02,3.84-2.1,2.46-.13,3.02,1.4,3.4,3.55.88,4.96,1.16,9.05.86,12.28Z"/></svg>