<?xml version="1.0" encoding="UTF-8"?><svg id="Layer_1" xmlns="http://www.w3.org/2000/svg" viewBox="0 0 231.73 231.73"><defs><style>.cls-1{fill:#c75a4e;}.cls-2{fill:#f7d8d2;}</style></defs><circle class="cls-2" cx="115.87" cy="115.86" r="108.37"/><path class="cls-1" d="M224.23,115.86h-7.5c0,13.95-2.82,27.2-7.92,39.26-7.65,18.09-20.45,33.51-36.55,44.38-16.11,10.88-35.47,17.22-56.39,17.22-13.95,0-27.2-2.82-39.26-7.92-18.09-7.65-33.51-20.45-44.39-36.55-10.88-16.11-17.22-35.47-17.22-56.39,0-13.95,2.82-27.2,7.92-39.26,7.65-18.09,20.45-33.51,36.55-44.39,16.11-10.88,35.47-17.22,56.39-17.22,13.95,0,27.2,2.82,39.26,7.92,18.09,7.65,33.51,20.45,44.38,36.55,10.88,16.11,17.22,35.47,17.22,56.39h15c0-15.98-3.24-31.24-9.11-45.1-8.8-20.8-23.48-38.48-41.97-50.97C162.17,7.3,139.84,0,115.87,0c-15.98,0-31.24,3.24-45.1,9.11-20.8,8.8-38.48,23.48-50.97,41.97C7.3,69.56,0,91.89,0,115.86c0,15.98,3.24,31.24,9.11,45.1,8.8,20.8,23.48,38.48,41.97,50.97,18.48,12.49,40.82,19.8,64.79,19.79,15.98,0,31.24-3.24,45.1-9.11,20.8-8.8,38.48-23.48,50.97-41.97,12.49-18.48,19.8-40.82,19.79-64.79h-7.5Z"/><path class="cls-1" d="M160.14,84.66c-5.44-1.99-13.82-4.32-23.95-4.75-2.91-3.37-12.98-13.3-32.41-15.83-1.27-.17-2.5.52-3.02,1.67-.23.52-4.95,11.4,1.27,20.52-10.42,4.55-21.27,11.95-31.89,23.46-2.45-7.71-9.41-20.47-28.79-22.62-.81-.12-1.64.17-2.25.72-.6.55-.95,1.32-.95,2.16,0,.6.26,14.59,9.67,22.97,2.16,1.9,4.58,3.37,7.28,4.35-2.71.98-5.12,2.45-7.28,4.35-9.41,8.38-9.67,22.37-9.67,22.97,0,.83.35,1.61.95,2.16.52.49,1.21.75,1.93.75.12,0,.2,0,.32-.03,21.42-2.39,27.66-17.67,29.39-24.84,10.42,11.14,21.04,18.34,31.29,22.8-6.22,9.12-1.5,20-1.27,20.52.49,1.04,1.53,1.7,2.65,1.7.11,0,.23,0,.37-.03,19.43-2.53,29.51-12.46,32.41-15.83,10.16-.43,18.51-2.76,23.95-4.75,18.74-6.85,33.45-20.55,33.45-31.2s-14.71-24.35-33.45-31.2h0ZM167.68,115.86c-3.17,0-5.76-2.59-5.76-5.76s2.59-5.76,5.76-5.76,5.76,2.59,5.76,5.76-2.59,5.76-5.76,5.76ZM152.19,133.94c.75,1.38.26,3.14-1.15,3.91-.43.23-.92.35-1.38.35-1.01,0-1.99-.55-2.53-1.5-3.48-6.33-5.35-13.56-5.35-20.84s1.87-14.51,5.35-20.84c.78-1.41,2.53-1.9,3.91-1.15,1.41.78,1.9,2.53,1.15,3.91-3.05,5.53-4.66,11.77-4.66,18.08s1.61,12.55,4.66,18.08h0Z"/></svg>