<?xml version="1.0" encoding="UTF-8"?>
<svg id="Layer_1" xmlns="http://www.w3.org/2000/svg" version="1.1" viewBox="0 0 32 24.6">
  <!-- Generator: Adobe Illustrator 30.2.1, SVG Export Plug-In . SVG Version: 2.1.1 Build 1)  -->
  <defs>
    <style>
      .st0 {
        fill: #b2b2b2;
      }
    </style>
  </defs>
  <path class="st0" d="M26.8,3.6c.7-.8.7-2.1-.1-2.8-.4-.3-.8-.5-1.3-.5H3.3C2.2.3,1.3,1.2,1.3,2.3s.2,1,.5,1.3h0l8.5,9.1v9.6c0,1.1.9,2,2,2s.8-.1,1.1-.3l4-2.7c.6-.4.9-1,.9-1.7v-6.9L26.8,3.7h0ZM3.3,2.3h0ZM16.6,11.6c-.2.2-.3.4-.3.7v7.3l-4,2.7v-10c0-.3,0-.5-.3-.7L3.3,2.3h22s-8.7,9.3-8.7,9.3ZM29.6,22.1c.3.4.3,1-.2,1.4s-1,.3-1.4-.2h0l-2-2.6-2.6,2c-.4.3-1,.3-1.4-.2s-.3-1,.2-1.4l2.6-2-2-2.6c-.3-.4-.3-1,.2-1.4s1-.3,1.4.2l2,2.6,2.6-2c.4-.3,1-.3,1.4.2s.3,1-.2,1.4h0l-2.6,2,2,2.6Z"/>
</svg>