<?xml version="1.0" encoding="UTF-8"?><svg id="Layer_1" xmlns="http://www.w3.org/2000/svg" viewBox="0 0 231.73 231.73"><defs><style>.cls-1{fill-rule:evenodd;}.cls-1,.cls-2{fill:#d96;}.cls-3{fill:#f2e3d7;}</style></defs><circle class="cls-3" cx="115.87" cy="115.86" r="108.37"/><path class="cls-2" d="M224.23,115.86h-7.5c0,13.95-2.82,27.2-7.92,39.26-7.65,18.09-20.45,33.51-36.55,44.38-16.11,10.88-35.47,17.22-56.39,17.22-13.95,0-27.2-2.82-39.26-7.92-18.09-7.65-33.51-20.45-44.39-36.55-10.88-16.11-17.22-35.47-17.22-56.39,0-13.95,2.82-27.2,7.92-39.26,7.65-18.09,20.45-33.51,36.55-44.39,16.11-10.88,35.47-17.22,56.39-17.22,13.95,0,27.2,2.82,39.26,7.92,18.09,7.65,33.51,20.45,44.38,36.55,10.88,16.11,17.22,35.47,17.22,56.39h15c0-15.98-3.24-31.24-9.11-45.1-8.8-20.8-23.48-38.48-41.97-50.97C162.17,7.3,139.84,0,115.87,0c-15.98,0-31.24,3.24-45.1,9.11-20.8,8.8-38.48,23.48-50.97,41.97C7.3,69.56,0,91.89,0,115.86c0,15.98,3.24,31.24,9.11,45.1,8.8,20.8,23.48,38.48,41.97,50.97,18.48,12.49,40.82,19.8,64.79,19.79,15.98,0,31.24-3.24,45.1-9.11,20.8-8.8,38.48-23.48,50.97-41.97,12.49-18.48,19.8-40.82,19.79-64.79h-7.5Z"/><path class="cls-1" d="M51.46,77.74c0-14.51,11.77-26.28,26.28-26.28h76.25c14.51,0,26.28,11.77,26.28,26.28,0,8.77-4.3,16.54-10.89,21.31v64.75c0,9.1-7.38,16.48-16.48,16.48h-74.07c-9.1,0-16.48-7.38-16.48-16.48v-64.75c-6.59-4.77-10.89-12.53-10.89-21.3ZM131.75,106.33c1.75-1.75,1.75-4.6,0-6.35s-4.6-1.75-6.35,0l-25.42,25.42c-1.75,1.75-1.75,4.6,0,6.35,1.75,1.75,4.6,1.75,6.35,0l25.42-25.42ZM140.22,116.92c1.75,1.75,1.75,4.6,0,6.35l-16.95,16.94c-1.75,1.75-4.6,1.75-6.35,0-1.75-1.75-1.75-4.6,0-6.35l16.94-16.94c1.75-1.75,4.6-1.75,6.35,0ZM114.81,97.86c1.75-1.75,1.75-4.6,0-6.35-1.75-1.75-4.6-1.75-6.35,0l-16.95,16.95c-1.75,1.75-1.75,4.6,0,6.35,1.75,1.75,4.6,1.75,6.35,0l16.94-16.94Z"/></svg>