<?xml version="1.0" encoding="UTF-8"?><svg id="Layer_1" xmlns="http://www.w3.org/2000/svg" viewBox="0 0 231.77 231.77"><defs><style>.cls-1{fill:#fff7eb;}.cls-2{fill:#ccb38b;}</style></defs><rect class="cls-1" x="7.5" y="7.5" width="216.77" height="216.77" rx="38.77" ry="38.77"/><path class="cls-2" d="M185.5,224.27v-7.5H46.27c-4.34,0-8.43-.87-12.17-2.45-5.6-2.37-10.39-6.34-13.76-11.34-3.37-5-5.33-10.98-5.34-17.48V46.27c0-4.34.88-8.43,2.45-12.17,2.37-5.6,6.34-10.39,11.34-13.76,5-3.37,10.98-5.33,17.48-5.34h139.23c4.34,0,8.43.88,12.17,2.45,5.6,2.37,10.39,6.34,13.76,11.34,3.37,5,5.33,10.98,5.34,17.48v139.23c0,4.34-.88,8.43-2.45,12.17-2.37,5.6-6.34,10.39-11.34,13.76-5,3.37-10.98,5.33-17.48,5.34v15c6.37,0,12.47-1.29,18.01-3.64,8.31-3.52,15.36-9.37,20.35-16.76,4.99-7.38,7.91-16.32,7.91-25.87V46.27c0-6.37-1.29-12.47-3.64-18.01-3.52-8.31-9.37-15.36-16.76-20.35C204,2.92,195.05,0,185.5,0H46.27c-6.37,0-12.47,1.29-18.01,3.64-8.31,3.52-15.36,9.37-20.35,16.76C2.92,27.77,0,36.71,0,46.27v139.23c0,6.37,1.29,12.47,3.64,18.01,3.52,8.31,9.37,15.36,16.76,20.35,7.38,4.99,16.32,7.91,25.87,7.91h139.23v-7.5Z"/><path class="cls-2" d="M101.07,101.44c-1.46-2.65-3.55-4.67-6.26-6.06-2.71-1.39-5.89-2.07-9.54-2.04-6.31.04-11.35,2.15-15.12,6.32-3.77,4.17-5.64,9.71-5.59,16.63.05,7.38,2.09,13.12,6.1,17.24,4.02,4.12,9.53,6.15,16.52,6.1,4.79-.03,8.83-1.28,12.12-3.73,3.29-2.45,5.68-5.97,7.17-10.54l-24.75.17-.1-14.37,42.42-.29.12,18.13c-1.41,4.88-3.83,9.42-7.26,13.62-3.43,4.21-7.8,7.62-13.1,10.24-5.3,2.62-11.3,3.95-17.99,4-7.91.05-14.97-1.63-21.19-5.04-6.22-3.42-11.08-8.19-14.58-14.33-3.5-6.13-5.28-13.15-5.33-21.06-.05-7.91,1.63-14.97,5.04-21.19,3.42-6.22,8.19-11.08,14.33-14.58,6.14-3.5,13.15-5.28,21.06-5.33,9.58-.07,17.67,2.2,24.28,6.79,6.61,4.59,11,10.99,13.19,19.18l-21.55.15Z"/><polygon class="cls-2" points="186.77 75.54 186.88 91.16 154.26 91.39 154.38 108.26 178.78 108.1 178.89 123.27 154.48 123.43 154.7 155.82 135.2 155.95 134.65 75.9 186.77 75.54"/></svg>