<?xml version="1.0" encoding="UTF-8"?><svg id="Layer_1" xmlns="http://www.w3.org/2000/svg" viewBox="0 0 231.77 231.77"><defs><style>.cls-1{fill:#ebfffc;}.cls-2{fill:#5da99d;}</style></defs><rect class="cls-1" x="7.5" y="7.5" width="216.77" height="216.77" rx="38.77" ry="38.77"/><path class="cls-2" d="M185.5,224.27v-7.5H46.27c-4.34,0-8.43-.87-12.17-2.45-5.6-2.37-10.39-6.34-13.76-11.34-3.37-5-5.33-10.98-5.34-17.48V46.27c0-4.34.88-8.43,2.45-12.17,2.37-5.6,6.34-10.39,11.34-13.76,5-3.37,10.98-5.33,17.48-5.34h139.23c4.34,0,8.43.88,12.17,2.45,5.6,2.37,10.39,6.34,13.76,11.34,3.37,5,5.33,10.98,5.34,17.48v139.23c0,4.34-.88,8.43-2.45,12.17-2.37,5.6-6.34,10.39-11.34,13.76-5,3.37-10.98,5.33-17.48,5.34v15c6.37,0,12.47-1.29,18.01-3.64,8.31-3.52,15.36-9.37,20.35-16.76,4.99-7.38,7.91-16.32,7.91-25.87V46.27c0-6.37-1.29-12.47-3.64-18.01-3.52-8.31-9.37-15.36-16.76-20.35C204,2.92,195.05,0,185.5,0H46.27c-6.37,0-12.47,1.29-18.01,3.64-8.31,3.52-15.36,9.37-20.35,16.76C2.92,27.77,0,36.71,0,46.27v139.23c0,6.37,1.29,12.47,3.64,18.01,3.52,8.31,9.37,15.36,16.75,20.35,7.38,4.99,16.32,7.91,25.87,7.91h139.23v-7.5Z"/><polygon class="cls-2" points="150.55 75.85 150.55 155.91 131.05 155.91 131.05 122.95 100.72 122.95 100.72 155.91 81.21 155.91 81.21 75.85 100.72 75.85 100.72 107.22 131.05 107.22 131.05 75.85 150.55 75.85"/></svg>