<svg width="267" height="238" viewBox="0 0 267 238" fill="none" xmlns="http://www.w3.org/2000/svg">
<path d="M261.263 55.2165C259.765 49.3416 257.452 43.706 254.392 38.4741C251.453 33.0315 247.695 28.0747 243.25 23.778C236.806 17.3439 229.174 12.2263 220.78 8.70982C203.884 1.76339 184.937 1.76339 168.041 8.70982C160.107 12.0739 152.818 16.7949 146.499 22.6618L145.571 23.778L133.5 35.8697L121.429 23.778L120.501 22.6618C114.182 16.7949 106.893 12.0739 98.9593 8.70982C82.0632 1.76339 63.1158 1.76339 46.2197 8.70982C37.8257 12.2263 30.1941 17.3439 23.7497 23.778C14.9356 32.3693 8.69611 43.2591 5.73655 55.2165C4.16207 61.2888 3.4125 67.5461 3.50812 73.8192C3.50812 79.7162 4.25093 85.5947 5.73655 91.3057C7.29336 97.0733 9.53796 102.632 12.4218 107.862C15.5364 113.238 19.3452 118.18 23.7497 122.558L133.5 232.5L243.25 122.558C247.651 118.224 251.421 113.257 254.392 107.862C260.424 97.5396 263.567 85.7797 263.492 73.8192C263.588 67.5461 262.838 61.2887 261.263 55.2165ZM242.693 85.5389C240.469 94.0388 236.05 101.802 229.88 108.048L133.129 204.782L36.3775 108.048C33.2247 104.867 30.4799 101.305 28.2066 97.4446C26.0674 93.625 24.3845 89.5665 23.1926 85.3528C22.2411 81.1397 21.743 76.8365 21.707 72.517C21.7322 68.074 22.2302 63.6463 23.1926 59.3091C24.3495 55.0833 26.0342 51.0206 28.2066 47.2174C30.435 43.3108 33.1834 39.7763 36.3775 36.6138C41.1481 31.8989 46.7526 28.114 52.905 25.4522C65.3028 20.4839 79.1334 20.4839 91.5312 25.4522C97.6593 28.0008 103.193 31.7399 107.873 36.4278L133.129 61.9135L158.384 36.4278C163.061 31.7316 168.613 28.0024 174.726 25.4522C187.124 20.4839 200.954 20.4839 213.352 25.4522C219.499 28.1124 225.107 31.9074 229.88 36.6138C233.111 39.6833 235.822 43.255 237.865 47.2174C242.166 54.8159 244.407 63.4099 244.364 72.1449C244.617 76.6398 244.242 81.1479 243.25 85.5389H242.693Z" fill="#E5E5E5" stroke="#E5E5E5" stroke-width="7"/>
</svg>
