<svg width="173" height="151" viewBox="0 0 173 151" fill="none" xmlns="http://www.w3.org/2000/svg">
<path d="M171.512 34.1012C170.515 30.2274 168.976 26.5112 166.94 23.0613C164.985 19.4724 162.483 16.2035 159.526 13.3703C155.238 9.12775 150.16 5.75401 144.575 3.43529C133.333 -1.1451 120.725 -1.1451 109.483 3.43529C104.204 5.65355 99.3539 8.76651 95.1496 12.6351L94.5319 13.3703L86.5 21.3437L78.4681 13.3703L77.8504 12.6351C73.6462 8.76651 68.7964 5.65355 63.5173 3.43529C52.275 -1.1451 39.6673 -1.1451 28.4249 3.43529C22.8396 5.75401 17.7621 9.12775 13.4742 13.3703C10.5145 16.2319 7.97687 19.4948 5.93658 23.0613C3.9912 26.5404 2.49645 30.25 1.48804 34.1012C0.440469 38.1052 -0.0582216 42.2313 0.0054014 46.3676C0.0118267 50.2575 0.509912 54.1305 1.48804 57.8973C2.524 61.7005 4.01764 65.3661 5.93658 68.8146C8.009 72.3596 10.5434 75.6184 13.4742 78.5056L86.5 151L159.526 78.5056C162.456 75.6479 164.953 72.3834 166.94 68.8146C168.953 65.3967 170.491 61.7243 171.512 57.8973C172.49 54.1305 172.988 50.2575 172.995 46.3676C173.059 42.2313 172.56 38.1052 171.512 34.1012Z" fill="#ACACAC"/>
</svg>
