<?xml version="1.0" encoding="UTF-8"?>
<svg id="Layer_1" xmlns="http://www.w3.org/2000/svg" version="1.1" viewBox="0 0 51 45">
  <!-- Generator: Adobe Illustrator 30.2.1, SVG Export Plug-In . SVG Version: 2.1.1 Build 1)  -->
  <defs>
    <style>
      .st0 {
        fill: #343434;
      }
    </style>
  </defs>
  <path class="st0" d="M33.9,4.8c-4.3,4.3-4.6,8.9-3.3,12,.1.3.1.6-.2.9l-22.4,19.9c-1.9,1.7-1.8,3.7,0,5.5,1.9,1.9,3.9,1.9,5.5,0l19.9-22.4c.2-.3.6-.3.9-.2,3.1,1.3,7.7,1,12-3.3,4.5-4.5,5.6-11.1,2.1-14.6-3.5-3.5-10.1-2.4-14.6,2.1Z"/>
  <path class="st0" d="M16.5,20.3c.3-.2.6-.2.8,0l3.2,3.5,3.7-3.3-3.8-3.3c-.3-.2-.3-.6,0-.8,2-3.1.9-6.2-1.9-8.6L9.3.4c-.6-.5-1.2-.5-1.7,0-.5.5-.5,1.2,0,1.7l7.6,7.6c.6.6.6,1.3,0,1.8h0c-.6.6-1.3.6-1.8,0L5.7,4c-.5-.5-1.2-.5-1.7,0-.5.5-.5,1.2,0,1.7l7.6,7.6c.6.6.6,1.3,0,1.8h0c-.6.6-1.3.6-1.8,0L2.1,7.5c-.5-.5-1.2-.5-1.7,0-.5.5-.5,1.1,0,1.7l7.5,9.2c2.4,2.9,5.6,3.9,8.6,1.9Z"/>
  <path class="st0" d="M43.2,37.6l-12.3-10.9-4,4.5,10.7,12c1.7,1.9,3.7,1.8,5.5,0,1.9-1.9,1.9-3.9,0-5.5Z"/>
</svg>