<?xml version="1.0" encoding="UTF-8"?><svg id="Layer_1" xmlns="http://www.w3.org/2000/svg" viewBox="0 0 231.73 231.73"><defs><style>.cls-1{fill:#66a1db;}.cls-2{fill:#ebf5ff;}</style></defs><circle class="cls-2" cx="115.87" cy="115.86" r="108.37"/><path class="cls-1" d="M222.63,70.76c-8.8-20.8-23.49-38.48-41.97-50.97C162.17,7.3,139.84,0,115.87,0,99.89,0,84.63,3.24,70.77,9.11c-20.81,8.8-38.48,23.48-50.98,41.97C7.3,69.56,0,91.89,0,115.86c0,15.98,3.24,31.24,9.11,45.11,8.8,20.8,23.48,38.48,41.97,50.97,18.48,12.49,40.82,19.79,64.79,19.79,15.98,0,31.23-3.24,45.1-9.11,20.8-8.8,38.48-23.48,50.97-41.97,12.49-18.48,19.8-40.82,19.79-64.79.01-15.97-3.24-31.23-9.1-45.1ZM208.81,155.12c-7.65,18.09-20.45,33.51-36.55,44.39-16.11,10.87-35.48,17.22-56.39,17.22-13.95,0-27.2-2.82-39.26-7.92-18.09-7.65-33.51-20.45-44.39-36.56-10.87-16.1-17.22-35.47-17.22-56.39,0-13.94,2.82-27.19,7.93-39.26,7.65-18.09,20.45-33.5,36.55-44.38,16.11-10.88,35.47-17.22,56.39-17.22,13.95,0,27.19,2.82,39.26,7.92,18.09,7.65,33.51,20.45,44.38,36.55,10.88,16.11,17.22,35.48,17.22,56.39,0,13.95-2.82,27.2-7.92,39.26Z"/><path class="cls-1" d="M94.29,49.63h43.18c1.4,0,2.71-.54,3.69-1.53.98-.98,1.53-2.3,1.53-3.69,0-2.88-2.34-5.22-5.22-5.22h-43.18c-1.39,0-2.71.54-3.68,1.52-.99.99-1.54,2.31-1.54,3.7,0,2.87,2.34,5.22,5.22,5.22Z"/><path class="cls-1" d="M146.42,99.67l-6.22-14.09c-3.53-7.95-5.38-16.4-5.59-25.04-.01-.26-.01-.53-.01-.79v-.02c-.12-1.17-1.11-2.1-2.32-2.1h-32.75c-1.28,0-2.33,1.05-2.33,2.33-.15,8.85-2.01,17.49-5.61,25.62l-6.21,14.09c-2.04,4.61-3.07,9.51-3.07,14.56v8.95h-.04v14.23h.04v51.13c0,2.2,1.79,4,4,4h59.19c2.22,0,4.01-1.8,4.01-4v-74.31c0-5.05-1.04-9.96-3.07-14.56ZM135.27,140.52c-6.18,0-10.75-.56-14.48-1.38-6-1.31-9.26-3.14-14.68-4.32-2.63-.56-5.81-.95-10.26-.95-5.37-.16-5.38-7.97,0-8.14,6.9-.03,12.2.85,17.83,2.76,7.6,2.71,12.34,3.91,21.59,3.9,5.37.16,5.39,7.97,0,8.14Z"/><path class="cls-1" d="M134.27,58.9v.57c0-.26,0-.52,0-.78v.21Z"/></svg>