<?xml version="1.0" encoding="UTF-8"?><svg id="Layer_2" xmlns="http://www.w3.org/2000/svg" viewBox="0 0 96.61 69.82"><defs><style>.cls-1{fill:#343434;}</style></defs><g id="Layer_1-2"><path class="cls-1" d="M47.52,30.13c.81,3.06,3.57,5.08,6.58,5.08.58,0,1.16-.07,1.74-.23,3.05-.8,5.07-3.56,5.07-6.58,0-.58-.07-1.16-.23-1.74-.81-3.05-3.57-5.07-6.59-5.07-.57,0-1.15.07-1.73.22h0c-3.05.81-5.07,3.58-5.07,6.6,0,.57.07,1.15.22,1.73h0ZM57.48,27.5c.08.3.11.59.11.89,0,1.54-1.03,2.96-2.6,3.38-.29.08-.59.11-.88.11-1.54,0-2.96-1.03-3.37-2.6h0c-.08-.3-.11-.59-.11-.88,0-1.54,1.03-2.96,2.59-3.37.3-.08.59-.11.89-.11,1.54,0,2.96,1.03,3.38,2.59Z"/><path class="cls-1" d="M50.2,40.98h0s-.06-.2-.06-.2h0c-.98-3.33-4.04-5.52-7.38-5.52-.65,0-1.31.08-1.96.25-2.88.77-4.94,3.06-5.54,5.78h0s0,0,0,0c0,0,0,0,0,0h0c-.08.33-.13.69-.16,1.05h0s0,.01,0,.02c0,0,0,0,0,0h0c-.02.18-.03.36-.03.55h0s0,.11,0,.11c0,.62.08,1.26.25,1.88.91,3.45,4.03,5.73,7.44,5.73.65,0,1.31-.08,1.96-.26,3.45-.91,5.73-4.03,5.73-7.44,0-.65-.08-1.31-.26-1.96ZM43.87,47.17c-.37.1-.74.14-1.11.14-1.94,0-3.71-1.3-4.23-3.26-.1-.37-.14-.74-.14-1.11,0-.56.11-1.12.31-1.62.5-1.23,1.56-2.23,2.94-2.6.37-.1.74-.14,1.1-.14,1.66,0,3.21.96,3.95,2.47h0c.12.24.21.49.28.77.1.37.15.75.15,1.12,0,1.93-1.29,3.7-3.25,4.22Z"/><polygon class="cls-1" points="35.31 44.91 35.31 44.91 35.31 44.91 35.31 44.91"/><polygon class="cls-1" points="3.7 60.65 3.7 60.65 3.69 60.65 3.7 60.65"/><polygon class="cls-1" points="9.82 32.66 9.82 32.66 9.82 32.66 9.82 32.66"/><polygon class="cls-1" points="6.92 26.86 6.92 26.86 6.92 26.86 6.92 26.86"/><path class="cls-1" d="M96.61,54.91c0-1.46-.7-2.84-1.93-4.1-1.85-1.9-4.92-3.59-8.93-5.05-3.92-1.42-8.75-2.61-14.23-3.49l4.67-23.44c2.13-.88,3.91-2.6,4.74-4.95h0c.33-.92.49-1.88.49-2.83,0-1.25-.28-2.49-.82-3.64h0s0,0,0,0c-.98-2.04-2.69-3.59-4.82-4.34C70.01,1.03,63.66,0,57.1,0c-5.66,0-11.5.76-17.27,2.28-12.46,3.29-23.41,9.82-30.87,18.43-1.34,1.54-2.06,3.49-2.06,5.52,0,.21,0,.42.02.63.16,2.26,1.18,4.32,2.9,5.8,1.6,1.38,3.56,2.04,5.51,2.04.35,0,.71-.03,1.06-.08l6.88,7.95c-6.8,1.22-12.5,2.91-16.56,4.94-2.09,1.05-3.76,2.19-4.91,3.42C.65,52.17,0,53.51,0,54.91c0,1.81,1.07,3.48,2.89,4.98.25.26.51.51.81.75,1.37,1.15,3.31,2.23,5.86,3.28,7.6,3.12,20.66,5.88,38.75,5.89,14.69,0,26.08-1.83,33.91-4.2,3.91-1.18,6.93-2.48,9.08-3.81h0s0,0,0,0c.99-.62,1.79-1.25,2.43-1.93,1.81-1.5,2.88-3.16,2.88-4.97ZM47.99,66.06l-18.41-21.29-2.31-2.67-7.48-8.64c.72-.44,1.4-.97,1.99-1.65,7.96-9.2,22.31-14.83,35.49-14.83,4.52,0,8.9.66,12.84,2.05h0c.84.3,1.7.43,2.54.45l-4.65,22.32c-.97-.28-1.98-.43-2.99-.43-.89,0-1.78.11-2.66.34h0c-.61.17-1.2.38-1.76.65h0s0,0,0,0c0,0,0,0,0,0h0c-2.6,1.2-4.54,3.39-5.49,5.98h0s-.05.11-.05.11v.02s-.01.02-.01.02c-.39,1.11-.59,2.29-.59,3.49,0,.9.11,1.81.35,2.72.52,1.96,1.54,3.65,2.91,4.96,1.65,1.6,3.81,2.62,6.16,2.88l-.34,2.77c-4.57.46-9.64.74-15.23.74-.11,0-.21,0-.32,0ZM12.01,30.14h0c-1.04-.9-1.67-2.14-1.77-3.51,0-.12-.01-.24-.01-.36,0-1.25.44-2.43,1.26-3.37h0c6.99-8.08,17.37-14.27,29.19-17.39,5.49-1.45,11.04-2.17,16.41-2.17,6.2,0,12.17.96,17.56,2.87,1.31.47,2.34,1.4,2.93,2.64h0c.34.71.51,1.46.51,2.22,0,.54-.09,1.08-.27,1.61l-.04.11c-.59,1.66-1.95,2.83-3.54,3.25h0c-.43.12-.87.18-1.32.18-.56,0-1.14-.1-1.7-.3h0c-4.26-1.51-8.99-2.22-13.85-2.22-14.15,0-29.49,5.99-38.11,15.95-1.01,1.17-2.44,1.77-3.88,1.77-1.2,0-2.4-.41-3.37-1.26h0ZM64.53,59.25c-3.06-.23-5.7-2.33-6.51-5.4-.16-.62-.24-1.25-.24-1.86,0-3.23,2.17-6.19,5.43-7.05.59-.16,1.19-.23,1.79-.23.79,0,1.59.14,2.35.39l-2.82,14.15Z"/></g></svg>