<?xml version="1.0" encoding="UTF-8"?><svg id="Layer_1" xmlns="http://www.w3.org/2000/svg" viewBox="0 0 231.74 231.73"><defs><style>.cls-1{fill:#fff7eb;}.cls-2{fill:#ccb38b;}</style></defs><circle class="cls-1" cx="115.87" cy="115.86" r="108.37"/><path class="cls-2" d="M222.63,70.76c-8.8-20.8-23.48-38.48-41.97-50.97C162.17,7.3,139.84,0,115.87,0,99.89,0,84.63,3.24,70.77,9.11c-20.81,8.8-38.48,23.48-50.97,41.97C7.3,69.56,0,91.89,0,115.86c0,15.98,3.25,31.24,9.11,45.11,8.8,20.8,23.48,38.48,41.97,50.97s40.82,19.79,64.79,19.79c15.98,0,31.24-3.24,45.1-9.11,20.81-8.8,38.48-23.48,50.97-41.97,12.5-18.48,19.8-40.82,19.8-64.79,0-15.97-3.25-31.23-9.11-45.1ZM208.81,155.12c-7.65,18.09-20.45,33.51-36.55,44.39-16.11,10.87-35.47,17.22-56.39,17.22-13.95,0-27.2-2.82-39.26-7.92-18.09-7.65-33.51-20.45-44.38-36.56-10.88-16.1-17.22-35.47-17.23-56.39,0-13.94,2.83-27.19,7.93-39.26,7.65-18.09,20.45-33.5,36.55-44.38,16.11-10.88,35.47-17.22,56.39-17.22,13.95,0,27.2,2.82,39.26,7.92,18.09,7.65,33.51,20.45,44.38,36.55,10.88,16.11,17.22,35.48,17.23,56.39,0,13.95-2.83,27.2-7.93,39.26Z"/><path class="cls-2" d="M105.73,75.8c2.71-5.32,5.73-9.95,9.06-13.91,2.67-3.18,6.58-6.5,11.75-9.98,12.7-8.57,29.6-8.29,41.07,2.05,5.08,4.58,8.5,10.02,10.27,16.36,1.04,3.72,1.66,7.18,1.86,10.36.16,2.59-.12,5.92-.84,10.02-1.49,8.36-4.89,16.1-10.22,23.22-4.28,5.71-9.32,10.18-15.15,13.4-2.66,1.47-5.24,2.81-7.71,4.02-5.04,2.46-6.63,8.5-8.18,13.73-2.37,8-6.27,15.3-11.7,21.89-7.93,9.64-17.93,15.83-30.02,18.57-1.44.33-4.28.45-8.49.36-18.24-.38-32.7-12.06-35.21-30.4-.2-1.42-.29-3.64-.27-6.65.04-10.33,4.7-21.04,11.01-28.37,5.57-6.46,12.3-11.7,20.18-15.72,2.56-1.3,4.87-2.43,6.93-3.39,1.11-.52,2.78-1.73,5-3.65,1.42-1.22,2.67-2.85,3.75-4.87,1.55-2.91,2.87-6,3.97-9.27,1.28-3.85,2.26-6.44,2.94-7.77M141.98,117.07c2.28-1,4.2-2.38,5.76-4.16,6.07-6.89,9.67-14.79,10.8-23.69.44-3.46-1.62-8.02-5.92-6.55-.25.08-.47.22-.66.39-1.3,1.21-2.18,2.44-2.64,3.71-.98,2.72-1.85,5.38-2.6,7.96-1.48,5.08-4.03,9.88-7.64,14.41-1.4,1.74-2.63,5-.8,6.73.9.86,1.9,1.3,2.99,1.33.25,0,.49-.04.72-.14M88.7,167.63c.59,5.21,8.25,2.82,11.06,1.34,13.75-7.2,22.62-20.82,26.69-35.77.07-.25.09-.52.07-.78-.14-1.56-.81-2.84-2.03-3.84-.21-.18-.46-.29-.74-.32-3.23-.46-4.75,1.72-5.86,4.34-.68,1.61-1.82,4.3-3.42,8.08-3.34,7.86-8.78,14.32-16.33,19.38-.75.5-3.46,2.05-8.14,4.66-.15.08-.29.19-.4.32-.71.78-1,1.65-.9,2.6Z"/></svg>