<svg width="24" height="24" viewBox="0 0 24 24" fill="none" xmlns="http://www.w3.org/2000/svg">
<path d="M23.6 9.7L18.5 14.8C18.8 17.5 18.1 20.3 16.3 22.6C16.1 22.9 15.8 23 15.5 23C15.2 23 15 22.9 14.7 22.7L8.9 16.9L2 23.8C2 23.8 1.8 23.9 1.7 23.9H0.5C0.2 23.9 0 23.7 0 23.4V22.2C0.1 22.1 0.2 22 0.3 21.9L7.2 15L1.2 9.3C1.1 9.2 1 9.1 1 8.9C1 8.8 1 8.6 1 8.5C1 8.3 1 8.2 1.1 8.1C1.1 8 1.3 7.9 1.4 7.8C3.3 6.3 5.6 5.5 8 5.5C10.4 5.5 8.8 5.5 9.2 5.5L14.2 0.3C14.4 0.1 14.7 0 15 0C15.3 0 15.5 0 15.8 0.3L23.7 8.2C24.1 8.6 24.1 9.3 23.7 9.7H23.6Z" fill="#ACACAC"/>
</svg>
