<?xml version="1.0" encoding="UTF-8"?><svg id="Layer_1" xmlns="http://www.w3.org/2000/svg" viewBox="0 0 231.73 231.73"><defs><style>.cls-1{fill:#faf4eb;}.cls-2{fill-rule:evenodd;}.cls-2,.cls-3{fill:#e0b775;}</style></defs><circle class="cls-1" cx="115.87" cy="115.86" r="108.37"/><path class="cls-3" d="M224.23,115.86h-7.5c0,13.95-2.82,27.2-7.92,39.26-7.65,18.09-20.45,33.51-36.55,44.38-16.11,10.88-35.47,17.22-56.39,17.22-13.95,0-27.2-2.82-39.26-7.92-18.09-7.65-33.51-20.45-44.39-36.55-10.88-16.11-17.22-35.47-17.22-56.39,0-13.95,2.82-27.2,7.92-39.26,7.65-18.09,20.45-33.51,36.55-44.39,16.11-10.88,35.47-17.22,56.39-17.22,13.95,0,27.2,2.82,39.26,7.92,18.09,7.65,33.51,20.45,44.38,36.55,10.88,16.11,17.22,35.47,17.22,56.39h15c0-15.98-3.24-31.24-9.11-45.1-8.8-20.8-23.48-38.48-41.97-50.97C162.17,7.3,139.84,0,115.87,0c-15.98,0-31.24,3.24-45.1,9.11-20.8,8.8-38.48,23.48-50.97,41.97C7.3,69.56,0,91.89,0,115.86c0,15.98,3.24,31.24,9.11,45.1,8.8,20.8,23.48,38.48,41.97,50.97,18.48,12.49,40.82,19.8,64.79,19.79,15.98,0,31.24-3.24,45.1-9.11,20.8-8.8,38.48-23.48,50.97-41.97,12.49-18.48,19.8-40.82,19.79-64.79h-7.5Z"/><path class="cls-2" d="M79.41,53.44s20.19,16.75,13.62,48.36c-2.66,12.52-14.87,20.5-27.39,18-12.52-2.66-20.5-14.87-18-27.39,6.57-31.77,31.77-38.97,31.77-38.97Z"/><path class="cls-2" d="M114.47,123.09s24.57,8.92,29.11,41.01c1.72,12.68-7.04,24.42-19.72,26.14s-24.42-7.04-26.14-19.72c-4.54-32.09,16.75-47.42,16.75-47.42Z"/><path class="cls-2" d="M177.23,56.57s7.67,25.04-15.18,47.89c-9.08,9.08-23.63,9.08-32.71,0-9.08-9.08-9.08-23.63,0-32.71,22.85-22.85,47.89-15.18,47.89-15.18Z"/></svg>