<?xml version="1.0" encoding="UTF-8"?><svg id="Layer_1" xmlns="http://www.w3.org/2000/svg" viewBox="0 0 231.73 231.73"><defs><style>.cls-1{fill:#cd7061;}.cls-2{fill:#ffdcd6;}</style></defs><circle class="cls-2" cx="115.86" cy="115.86" r="108.37"/><path class="cls-1" d="M222.62,70.76c-8.8-20.8-23.48-38.48-41.97-50.97C162.17,7.3,139.83,0,115.86,0,99.89,0,84.63,3.24,70.76,9.11c-20.8,8.8-38.48,23.48-50.97,41.97C7.3,69.56,0,91.89,0,115.86,0,131.84,3.24,147.1,9.11,160.97c8.8,20.8,23.48,38.48,41.97,50.97,18.48,12.49,40.81,19.79,64.78,19.79,15.98,0,31.24-3.24,45.11-9.11,20.8-8.8,38.48-23.48,50.97-41.97,12.49-18.48,19.79-40.82,19.79-64.79,0-15.97-3.24-31.23-9.11-45.1ZM208.81,155.12c-7.65,18.09-20.45,33.51-36.56,44.39-16.1,10.87-35.47,17.22-56.39,17.22-13.94,0-27.19-2.82-39.26-7.92-18.09-7.65-33.5-20.45-44.38-36.56-10.88-16.1-17.22-35.47-17.22-56.39,0-13.94,2.82-27.19,7.92-39.26,7.65-18.09,20.45-33.5,36.55-44.38,16.11-10.88,35.48-17.22,56.39-17.22,13.95,0,27.2,2.82,39.26,7.92,18.09,7.65,33.51,20.45,44.39,36.55,10.87,16.11,17.22,35.48,17.22,56.39,0,13.95-2.82,27.2-7.92,39.26Z"/><path class="cls-1" d="M139.41,160.19c1.02.17,2.1.31,3.23.44,7.22.81,12.62,4.12,16.2,9.91,1.64,2.65,3.01,6.4,2.94,9.42-.12,4.67-4.91,6-8.65,4.4-.29-.13-.5-.36-.59-.65-1.54-4.91-2.77-9.71-8.09-11.8-3.28-1.3-6.56-1.65-9.82-1.07-.31.06-.59.19-.82.4-.77.68-1.48,1.57-2.1,2.69-.12.22-.12.49,0,.71,1.31,2.54,2.45,4.12,2.53,7.28.08,3.26.1,6.12-3.92,6.06-9.69-.12-20.2-.13-31.55-.02-.58,0-1.09-.38-1.25-.93-1.18-4.11-1.14-8.79,2.52-11.89.69-.58.91-1.49.52-2.14-2.1-3.45-6.58-2.73-10.12-2.09-5.11.93-8.68,4.34-10.13,9.31-.55,1.9-1.04,3.99-2.72,4.66-.17.07-.35.1-.53.11-1.21.05-2.71.22-3.79-.24-2.2-.93-3.22-2.61-3.06-5.07.47-7.21,5.17-14.77,11.89-17.42,3.45-1.36,7.14-2.05,11.05-2.05.56,0,.98-.54.84-1.09l-1.19-4.68c-.16-.63-.73-1.09-1.39-1.1-6.52-.1-12-.1-16.42.03-2.72.08-5.24.6-7.55,1.54-.54.22-1.43.81-2.68,1.79-.15.12-.29.26-.41.41-.97,1.23-2.15,2.58-3.55,4.03-1.06,1.11-2.31,1.54-3.75,1.31-6.3-1.02-5.36-6.09-2.88-10.27,3.1-5.2,7.67-8.47,13.7-9.82.19-.04.38-.06.58-.06h21.09c.47,0,.86-.38.86-.86v-4.16c0-.53-.42-.96-.94-.98-10.45-.37-20.23-.62-27.28-9.13-3.39-4.09-5.6-8.8-6.65-14.13-.96-4.93,3.4-8.32,7.88-5.54.88.54,1.92,2.65,2.44,3.97,2.53,6.37,5.44,11.11,12.37,12.46,2.47.48,5.39.7,8.77.64,2.07-.03,3.47-1.1,4.19-3.21.87-2.55-1.49-5.05-3.52-6.26-3.18-1.89-7.36-3.81-10.1-6.23-3.76-3.32-6.27-7.46-7.53-12.43-.7-2.75-.38-5.98-.38-8.85,0-.89-.22-1.77-.65-2.55-1.88-3.47-3.24-7.21-3.47-11.5-.58-11.61,4.57-21.29,13.16-28.67,3.31-2.85,7.07-5.02,11.26-6.52,1.6-.57,5.08-1.46,6.46-.19,2.29,2.09,1.36,5.94.06,8.29-.88,1.56-3.89,5.15-4.37,7.87-.12.67.59,1.17,1.18.84,2.23-1.25,4.83-2.69,7.1-2.51,5.05.39,5.08,5.21,3.05,8.6-3.45,5.74-7.2,10.76-11.24,15.04-2.71,2.86-4.83,5.04-6.35,6.54-2.72,2.67-4.27,4.76-4.66,6.25-1.3,4.96,2.47,8.91,6.34,11.75,2.64,1.94,5.36,3.68,8.18,5.22.26.15.6.03.73-.24.75-1.54,1.87-2.87,3.34-3.98.32-.24.61-.79.85-1.64.49-1.66-.79-3.64-.5-5.49.34-2.18,1.53-3.76,3.56-4.75,4.17-2.03,6.59,1.82,7.86,5.11.16.42.52.73.95.84,2.29.56,4.37.61,6.25.14.88-.22,1.46-.54,1.76-.95.17-.23.23-.52.17-.8-.85-4.15,3.38-5.58,6.5-4.25,1.92.81,3.27,2.49,4.04,5.01.1.34.12.7.04,1.04-.4,1.89-2.17,4.44.05,5.88.49.32.85.65,1.07.97.8,1.23,1.81,2.26,3.03,3.1.19.13.43.15.64.05,3.42-1.68,6.47-3.57,9.14-5.69,4.25-3.36,7.4-9.64,3.26-14.21-.19-.22-2.03-2.01-5.51-5.38-4.75-4.6-9.18-10.03-13.31-16.31-1.16-1.76-2.09-3.65-2.76-5.66-.08-.22-.11-.45-.11-.68-.03-4.35,3.06-6.23,7.05-5.03,1.54.47,2.9,1.17,4.09,2.11.58.46,1.42-.01,1.33-.74-.35-3.06-2.22-5.24-4.58-8.62-.75-1.06-1.11-2.65-1.09-4.78,0-.24.05-.47.15-.69,3.25-7.21,14.5.15,18.32,3.01,8.28,6.22,13.23,16.45,14.12,26.42.44,4.96-.81,10.15-3.77,15.58-.1.19-.17.39-.22.6-.26,1.31.21,3.11.25,4.44.19,6.06-1.85,11.32-6.09,15.78-3.82,4-8.19,6.28-14.16,9.67-1.85,1.05-3.21,4.18-1.91,6.25.63,1.02,1.43,1.75,2.37,2.2.24.11.49.17.76.17,9.41.17,17.2-1.13,20.97-10.46.95-2.35,1.57-3.86,1.85-4.56.71-1.72,2.03-2.64,3.98-2.77,5.41-.37,6.16,3.79,5.15,7.98-2.55,10.53-10.56,18.62-21.53,20.49-3.47.59-6.97.93-10.5,1-.84.02-1.5.74-1.43,1.59l.28,3.41c.06.68.65,1.18,1.33,1.1.08,0,5.63-.03,16.62-.08,5.16-.02,8.03,1,12.13,4.05,3.63,2.7,6.93,6.93,7.25,11.35.11,1.55-.67,2.77-2.35,3.66-2.19,1.16-4.13.88-5.83-.82-2.52-2.52-3.8-3.8-3.84-3.84-3.15-2.88-7.33-3.36-10.99-3.41-5.02-.06-10.13-.1-15.32-.09-.3,0-.56.21-.63.5l-1.41,6.05c-.06.23.1.46.33.49Z"/></svg>