<?xml version="1.0" encoding="UTF-8"?><svg id="Layer_1" xmlns="http://www.w3.org/2000/svg" viewBox="0 0 231.73 231.73"><defs><style>.cls-1{fill:#7ec19d;}.cls-2{fill:#ebfff4;}</style></defs><circle class="cls-2" cx="115.86" cy="115.86" r="108.37"/><path class="cls-1" d="M222.62,70.76c-8.8-20.8-23.48-38.48-41.97-50.97C162.17,7.3,139.83,0,115.86,0,99.89,0,84.63,3.24,70.76,9.11c-20.8,8.8-38.48,23.48-50.97,41.97C7.3,69.56-.01,91.89,0,115.86,0,131.84,3.24,147.1,9.11,160.97c8.8,20.8,23.48,38.48,41.97,50.97,18.48,12.49,40.81,19.79,64.78,19.79,15.98,0,31.24-3.24,45.11-9.11,20.8-8.8,38.48-23.48,50.97-41.97,12.49-18.48,19.79-40.82,19.79-64.79,0-15.97-3.24-31.23-9.11-45.1ZM208.81,155.12c-7.65,18.09-20.45,33.51-36.56,44.39-16.1,10.87-35.47,17.22-56.39,17.22-13.94,0-27.19-2.82-39.26-7.92-18.09-7.65-33.5-20.45-44.38-36.56-10.88-16.1-17.22-35.47-17.22-56.39,0-13.94,2.82-27.19,7.92-39.26,7.65-18.09,20.45-33.5,36.55-44.38,16.11-10.88,35.48-17.22,56.39-17.22,13.95,0,27.2,2.82,39.26,7.92,18.09,7.65,33.51,20.45,44.39,36.55,10.87,16.11,17.22,35.48,17.22,56.39,0,13.95-2.82,27.2-7.92,39.26Z"/><path class="cls-1" d="M158.32,75.06c-1.44-1.44-3.34-2.23-5.37-2.23-2.03,0-3.94.79-5.37,2.23h0c-2.96,2.96-2.96,7.78,0,10.75,1.44,1.44,3.34,2.23,5.37,2.23s3.94-.79,5.37-2.23c2.96-2.96,2.96-7.78,0-10.75Z"/><path class="cls-1" d="M123.85,109.53c-1.44-1.44-3.34-2.23-5.37-2.23s-3.94.79-5.37,2.23h0c-1.44,1.44-2.23,3.34-2.23,5.37s.79,3.94,2.23,5.37c2.96,2.96,7.78,2.96,10.75,0,1.44-1.44,2.23-3.34,2.23-5.37s-.79-3.94-2.23-5.37Z"/><path class="cls-1" d="M89.39,143.99c-1.44-1.44-3.34-2.23-5.37-2.23s-3.94.79-5.37,2.23c-1.44,1.44-2.23,3.34-2.23,5.37s.79,3.94,2.23,5.37c2.96,2.96,7.78,2.96,10.75,0,1.44-1.44,2.23-3.34,2.23-5.37s-.79-3.94-2.23-5.37Z"/><path class="cls-1" d="M136.83,132.78c3.75-3.76,6.21-8.49,7.11-13.7,1.25-7.15,6.67-12.58,13.82-13.82,5.21-.91,9.94-3.37,13.7-7.12,6.05-6.05,6.98-21.92,6.58-33.84-.17-4.88-4.09-8.8-8.97-8.97-1.53-.05-3.13-.08-4.76-.08-11.08,0-23.81,1.39-29.08,6.66-3.75,3.75-6.21,8.49-7.11,13.7-1.24,7.15-6.66,12.58-13.82,13.82-5.2.9-9.94,3.36-13.69,7.12-3.76,3.75-6.22,8.49-7.12,13.7-1.23,7.09-6.71,12.64-13.64,13.78-5.84.98-11.02,3.85-14.98,8.32-7.74,8.74-8.35,22.05-1.84,31.52l-6.73,6.73c-1.69,1.69-1.97,4.44-.44,6.29,1.75,2.12,4.89,2.23,6.78.33l6.86-6.86c4.02,2.8,8.75,4.38,13.78,4.54,7.15.23,13.86-2.44,18.91-7.49,3.76-3.75,6.22-8.49,7.12-13.69,1.23-7.09,6.73-12.6,13.82-13.82,5.21-.9,9.95-3.36,13.7-7.11ZM84.01,163.59c-3.64,0-7.29-1.38-10.07-4.16-2.69-2.69-4.17-6.26-4.17-10.06s1.48-7.38,4.17-10.07c1.35-1.35,2.91-2.38,4.61-3.09,1.71-.7,3.56-1.07,5.46-1.07,3.8,0,7.38,1.48,10.07,4.17,2.69,2.69,4.17,6.26,4.17,10.07s-1.48,7.37-4.17,10.06c-2.77,2.77-6.42,4.16-10.07,4.16ZM118.48,129.13c-3.8,0-7.37-1.48-10.06-4.17-2.69-2.69-4.17-6.26-4.17-10.07s1.48-7.37,4.17-10.06c1.35-1.35,2.91-2.39,4.61-3.1,1.71-.7,3.54-1.08,5.45-1.08,3.8,0,7.38,1.48,10.07,4.17,2.69,2.69,4.17,6.26,4.17,10.06s-1.48,7.38-4.17,10.07c-2.69,2.69-6.26,4.17-10.07,4.17ZM152.95,94.67c-3.8,0-7.38-1.48-10.07-4.17-5.55-5.55-5.55-14.58,0-20.13,1.34-1.34,2.91-2.39,4.62-3.09,1.7-.7,3.54-1.08,5.45-1.08,3.8,0,7.37,1.48,10.06,4.17,5.55,5.55,5.55,14.58,0,20.13-2.69,2.69-6.26,4.17-10.06,4.17Z"/></svg>