<svg width="26" height="26" viewBox="0 0 26 26" fill="none" xmlns="http://www.w3.org/2000/svg">
<path d="M12.7999 0.399658C13.6069 0.399658 14.3198 0.870668 14.6691 1.60767H14.67L17.255 7.07837H17.256C17.3335 7.24259 17.4775 7.34758 17.6359 7.37134H17.6368L23.4191 8.24927C24.2156 8.37013 24.8558 8.94111 25.0978 9.71997C25.3252 10.449 25.1662 11.2369 24.6779 11.8079L24.5763 11.9192L20.3917 16.177C20.2692 16.3019 20.2104 16.4854 20.2404 16.6692L21.2277 22.6819C21.3597 23.4858 21.0503 24.2949 20.4054 24.7825C20.0431 25.0578 19.6123 25.1995 19.1779 25.1995C18.8849 25.1995 18.5915 25.1356 18.3175 25.0071L18.2013 24.9475L13.0294 22.1096V22.1086C12.8855 22.0296 12.7144 22.0296 12.5704 22.1086V22.1096L7.39856 24.9475C6.68925 25.3361 5.83908 25.2726 5.19348 24.7815V24.7805C4.55 24.2921 4.24023 23.4857 4.37219 22.6819L5.3595 16.6692C5.38955 16.485 5.33033 16.3012 5.20911 16.178L5.20813 16.177L1.02356 11.9192C0.456267 11.3423 0.259521 10.4975 0.502075 9.71997C0.74496 8.94148 1.38497 8.37022 2.18079 8.24927L7.96204 7.37134C8.12054 7.34705 8.2662 7.24187 8.34485 7.07739L10.9298 1.60767C11.2781 0.871466 11.9929 0.39966 12.7999 0.399658ZM12.7999 2.00806C12.609 2.0081 12.441 2.1107 12.3478 2.30786L9.76282 7.77759V7.77856C9.46352 8.41107 8.8799 8.85843 8.19348 8.96118L8.19446 8.96216L2.41223 9.84009C2.22247 9.86863 2.068 9.99479 2.0011 10.2063C1.93497 10.4192 1.98736 10.6291 2.13489 10.7795L6.31848 15.0374C6.77598 15.5028 6.99596 16.1562 6.92883 16.8059L6.91125 16.9358L5.92395 22.9485C5.88774 23.17 5.96839 23.3671 6.13196 23.4915C6.29243 23.6133 6.4801 23.6267 6.65247 23.5315L6.65344 23.5305L11.8253 20.6926L11.9406 20.634C12.2132 20.5058 12.5065 20.4407 12.7999 20.4407C13.1351 20.4407 13.4703 20.5254 13.7745 20.6926L18.9454 23.5305L18.9464 23.5315C19.1186 23.6266 19.3059 23.6131 19.4679 23.4905C19.6311 23.3667 19.7112 23.1706 19.6749 22.9485L18.6886 16.9368L18.671 16.8059C18.6031 16.156 18.823 15.5027 19.2814 15.0374L23.465 10.7795L23.5157 10.7209C23.6233 10.5781 23.6558 10.3941 23.5978 10.2073C23.5403 10.0225 23.4155 9.90215 23.2579 9.85571L23.1886 9.84009L17.4064 8.96216C16.7212 8.85828 16.1386 8.41137 15.839 7.77856L15.838 7.77759L13.2521 2.30786C13.1588 2.11063 12.9909 2.00806 12.7999 2.00806Z" fill="#E5E5E5" stroke="#E5E5E5" stroke-width="0.8"/>
</svg>
