<svg width="24" height="24" viewBox="0 0 24 24" fill="none" xmlns="http://www.w3.org/2000/svg">
<path d="M18.3779 24C18.1108 24 17.8416 23.9326 17.5936 23.7969L12.4223 20.9577C12.1582 20.8124 11.8417 20.8124 11.5776 20.9577L6.40629 23.7958C5.83473 24.1084 5.15629 24.0579 4.63513 23.6622C4.11297 23.2665 3.85692 22.6088 3.96577 21.9458L4.95366 15.9338C5.00406 15.6265 4.90628 15.3129 4.69257 15.0951L0.509127 10.8383C0.0474276 10.3679 -0.115874 9.67856 0.083737 9.03873C0.283333 8.3989 0.803498 7.94114 1.44158 7.84431L7.22373 6.96665C7.51908 6.9214 7.77513 6.72777 7.90718 6.44889L10.4919 0.978683C10.7772 0.375681 11.3548 0 12 0C12.6451 0 13.2228 0.37463 13.5081 0.978683L16.0938 6.44889C16.2259 6.72883 16.4819 6.92245 16.7773 6.96665L22.5594 7.84431C23.1975 7.94113 23.7177 8.3989 23.9163 9.03873C24.1159 9.67856 23.9526 10.3689 23.4909 10.8383L19.3064 15.0962C19.0927 15.314 18.9949 15.6276 19.0453 15.9349L20.0332 21.9469C20.1421 22.6098 19.886 23.2686 19.3639 23.6632C19.0705 23.8863 18.7247 24 18.3779 24Z" fill="#FAC034"/>
</svg>
