<?xml version="1.0" encoding="UTF-8"?><svg id="Layer_1" xmlns="http://www.w3.org/2000/svg" viewBox="0 0 231.73 231.73"><defs><style>.cls-1{fill:#db8a48;}.cls-2{fill:#fff4eb;}</style></defs><circle class="cls-2" cx="115.87" cy="115.86" r="108.37"/><path class="cls-1" d="M222.62,70.76c-8.8-20.8-23.48-38.48-41.97-50.97C162.17,7.3,139.84,0,115.87,0,99.89,0,84.63,3.24,70.76,9.11c-20.8,8.8-38.48,23.48-50.97,41.97C7.3,69.56,0,91.89,0,115.86c0,15.98,3.24,31.24,9.11,45.11,8.8,20.8,23.48,38.48,41.97,50.97,18.48,12.49,40.81,19.79,64.79,19.79,15.97,0,31.23-3.24,45.1-9.11,20.8-8.8,38.48-23.48,50.97-41.97,12.49-18.48,19.79-40.82,19.79-64.79,0-15.97-3.24-31.23-9.11-45.1ZM208.81,155.12c-7.65,18.09-20.45,33.51-36.55,44.39-16.11,10.87-35.48,17.22-56.39,17.22-13.95,0-27.2-2.82-39.26-7.92-18.1-7.65-33.51-20.45-44.39-36.56-10.88-16.1-17.22-35.47-17.22-56.39,0-13.94,2.82-27.19,7.92-39.26,7.65-18.09,20.45-33.5,36.56-44.38,16.1-10.88,35.47-17.22,56.39-17.22,13.94,0,27.19,2.82,39.25,7.92,18.1,7.65,33.51,20.45,44.39,36.55,10.88,16.11,17.22,35.48,17.22,56.39,0,13.95-2.82,27.2-7.92,39.26Z"/><path class="cls-1" d="M109.24,191.25c-2.52.17-3.44-3.89-3.5-5.75-.13-4.21-.27-7.45-.41-9.72-.02-.31-.27-.55-.58-.56l-7.99-.22c-.17,0-.34-.04-.5-.09-1.66-.52-3.46-.48-4.85-.76-7.32-1.48-13.48-3.63-18.47-6.46-10.77-6.1-17.98-14.97-21.63-26.58-1.82-5.79-2.59-14.03,5.75-14.63,2.74-.19,5.75-.17,9,.06,1.18.09,2.28-.13,3.28-.66.3-.15.38-.55.17-.81-.99-1.27-2.12-2.66-3.43-4.18-4.67-5.45-6.56-12.15-8.16-19.06-.42-1.79-.65-3.85-.69-6.18-.11-6.17-.06-9.98.13-11.43.71-5.31,2.3-9.32,8.32-9.66,9.37-.54,18.03,4.54,23.97,11.62.74.88,1.95,1.73,2.9.75.42-.44.64-.97.63-1.59-.05-5.02-.29-8.89.48-13.33,1.81-10.57,6.58-19.74,14.29-27.5,2.59-2.59,7.17-5.32,10.86-3.51,4.67,2.28,7.99,6.66,11.07,11.47,5.81,9.07,8.56,19.53,8.24,31.39-.02.93.24,1.69.81,2.28.41.42,1.07.45,1.52.08,7.85-6.63,15.25-12.44,25.75-11.62,4.43.35,6.99,2.78,7.69,7.29,1.14,7.38.96,14.81-.55,22.27-1.25,6.21-3.81,12.34-7.89,17.27-1.23,1.48-2.07,2.54-2.53,3.15-.44.59-.34,1.4.22,1.8.24.17.66.24,1.26.19,3.92-.31,7.73-.26,11.41.14,4.49.5,6.25,4.78,5.74,8.75-1.25,9.73-6.48,18.25-13.63,25.03-10.82,10.28-25.98,14.5-40.54,14.78-.63.01-1.15.5-1.21,1.12l-.82,8.95c-.01.16-.06.31-.12.46-.73,1.61-.56,3.87-2.61,5.22-.76.5-1.78.29-2.26-.47-.67-1.05-.58-2.26-.57-3.53.02-28.98.01-52.1-.01-69.34,0-2.51-1.79-5.8-4.67-5.8-3.2,0-4.14,4.31-4.13,6.89.12,18.8.14,41,.08,66.6,0,1.13-.14,2.6-.41,4.41-.12.81-.7,1.43-1.4,1.47Z"/></svg>