<svg width="24" height="24" viewBox="0 0 24 24" fill="none" xmlns="http://www.w3.org/2000/svg">
<path d="M23.6676 8.16634L15.811 0.309307C15.6038 0.102039 15.3328 0 15.0617 0C14.7907 0 14.5197 0.102039 14.3124 0.309307L9.17573 5.44954C8.78673 5.4049 8.39454 5.38577 8.00235 5.38577C5.66835 5.38577 3.33435 6.15425 1.41804 7.69122C1.302 7.7844 1.20689 7.90099 1.1389 8.03338C1.07091 8.16578 1.03158 8.31101 1.02346 8.45962C1.01533 8.60823 1.03861 8.75688 1.09176 8.8959C1.14492 9.03492 1.22676 9.16117 1.33195 9.26645L7.1255 15.0604L0.257421 21.9225C0.173259 22.0062 0.121317 22.1168 0.110749 22.235L0.00233941 23.4212C-0.0263573 23.721 0.212782 23.9761 0.509315 23.9761C0.525257 23.9761 0.5412 23.9761 0.557143 23.9729L1.74327 23.8645C1.86125 23.8549 1.97285 23.8007 2.05575 23.7178L8.92383 16.8493L14.7174 22.6432C14.9246 22.8504 15.1957 22.9525 15.4667 22.9525C15.776 22.9525 16.0821 22.8186 16.2925 22.5571C18.0877 20.3154 18.8338 17.5093 18.5309 14.7957L23.6676 9.65866C24.0789 9.25051 24.0789 8.58087 23.6676 8.16634ZM16.9047 13.179L16.1235 13.9603L16.2447 15.0572C16.4347 16.7538 16.0962 18.4677 15.2754 19.9646L4.01669 8.69886C4.42801 8.47246 4.85527 8.28113 5.30167 8.12807C6.16895 7.82833 7.07768 7.67846 8.00235 7.67846C8.30845 7.67846 8.61773 7.69441 8.92383 7.72948L10.0207 7.85065L10.8019 7.06942L15.0649 2.80608L21.171 8.9125L16.9047 13.179Z" fill="#ACACAC"/>
</svg>
