<?xml version="1.0" encoding="UTF-8"?><svg id="Layer_1" xmlns="http://www.w3.org/2000/svg" viewBox="0 0 231.77 231.77"><defs><style>.cls-1{fill:#ecebff;}.cls-2{fill:#7571a4;}</style></defs><rect class="cls-1" x="7.5" y="7.5" width="216.77" height="216.77" rx="38.77" ry="38.77"/><path class="cls-2" d="M185.5,224.27v-7.5H46.27c-4.34,0-8.43-.87-12.17-2.45-5.6-2.37-10.39-6.34-13.76-11.34-3.37-5-5.33-10.98-5.34-17.48V46.27c0-4.34.88-8.43,2.45-12.17,2.37-5.6,6.34-10.39,11.34-13.76,5-3.37,10.98-5.33,17.48-5.34h139.23c4.34,0,8.43.88,12.17,2.45,5.6,2.37,10.39,6.34,13.76,11.34,3.37,5,5.33,10.98,5.34,17.48v139.23c0,4.34-.88,8.43-2.45,12.17-2.37,5.6-6.34,10.39-11.34,13.76-5,3.37-10.98,5.33-17.48,5.34v15c6.37,0,12.47-1.29,18.01-3.64,8.31-3.52,15.36-9.37,20.35-16.76,4.99-7.38,7.91-16.32,7.91-25.87V46.27c0-6.37-1.29-12.47-3.64-18.01-3.52-8.31-9.37-15.36-16.76-20.35C204,2.92,195.05,0,185.5,0H46.27c-6.37,0-12.47,1.29-18.01,3.64-8.31,3.52-15.36,9.37-20.35,16.76C2.92,27.77,0,36.71,0,46.27v139.23c0,6.37,1.29,12.47,3.64,18.01,3.52,8.31,9.37,15.36,16.76,20.35,7.38,4.99,16.32,7.91,25.87,7.91h139.23v-7.5Z"/><polygon class="cls-2" points="114.4 76.03 86 156.08 61.6 156.08 33.2 76.03 53.96 76.03 73.8 136.47 93.76 76.03 114.4 76.03"/><path class="cls-2" d="M175.64,101.34c-1.45-2.66-3.52-4.69-6.22-6.1-2.7-1.41-5.87-2.11-9.52-2.11-6.31,0-11.37,2.07-15.17,6.22-3.8,4.14-5.7,9.68-5.7,16.59,0,7.38,2,13.13,5.99,17.28,3.99,4.14,9.48,6.22,16.48,6.22,4.79,0,8.84-1.22,12.15-3.65,3.31-2.43,5.72-5.93,7.24-10.49h-24.75v-14.37h42.42v18.13c-1.44,4.87-3.9,9.39-7.36,13.57-3.46,4.18-7.85,7.57-13.17,10.15-5.32,2.59-11.33,3.88-18.02,3.88-7.91,0-14.96-1.73-21.15-5.19-6.2-3.46-11.02-8.27-14.48-14.43-3.46-6.16-5.19-13.19-5.19-21.1s1.73-14.96,5.19-21.15c3.46-6.2,8.27-11.02,14.43-14.48,6.16-3.46,13.19-5.19,21.1-5.19,9.58,0,17.66,2.32,24.23,6.96,6.57,4.64,10.93,11.06,13.06,19.27h-21.55Z"/></svg>