<?xml version="1.0" encoding="UTF-8"?><svg id="Layer_1" xmlns="http://www.w3.org/2000/svg" viewBox="0 0 231.74 231.73"><defs><style>.cls-1{fill:#fff7eb;}.cls-2{fill:#e5aa4e;}</style></defs><circle class="cls-1" cx="115.87" cy="115.86" r="108.37"/><path class="cls-2" d="M222.63,70.76c-8.8-20.8-23.48-38.48-41.97-50.97C162.17,7.3,139.84,0,115.87,0,99.89,0,84.63,3.24,70.77,9.11c-20.8,8.8-38.48,23.48-50.97,41.97C7.3,69.56,0,91.89,0,115.86c0,15.98,3.25,31.24,9.11,45.11,8.8,20.8,23.49,38.48,41.97,50.97,18.49,12.49,40.82,19.79,64.79,19.79,15.98,0,31.24-3.24,45.1-9.11,20.81-8.8,38.48-23.48,50.97-41.97,12.5-18.48,19.8-40.82,19.8-64.79,0-15.97-3.25-31.23-9.11-45.1ZM208.81,155.12c-7.65,18.09-20.45,33.51-36.55,44.39-16.11,10.87-35.47,17.22-56.39,17.22-13.95,0-27.2-2.82-39.26-7.92-18.09-7.65-33.51-20.45-44.38-36.56-10.88-16.1-17.22-35.47-17.23-56.39.01-13.94,2.83-27.19,7.93-39.26,7.65-18.09,20.45-33.5,36.55-44.38,16.11-10.88,35.47-17.22,56.39-17.22,13.95,0,27.2,2.82,39.26,7.92,18.09,7.65,33.51,20.45,44.38,36.55,10.88,16.11,17.22,35.48,17.23,56.39,0,13.95-2.83,27.2-7.93,39.26Z"/><path class="cls-2" d="M80.89,96.66c.15.11.36,0,.36-.18l-.41-10.64c-.03-.72-.22-1.42-.57-2.04-1.35-2.45-2.46-4.58-3.34-6.38-1.13-2.32-1.83-5.06-2.09-8.21-.69-8.16,1.06-15.92,5.22-23.3,1.46-2.58,3.91-7.52,7.06-3.88,4.31,4.98,6.93,11.89,8.19,18.3,1.56,7.92-.04,15.43-4.79,22.51-.53.79-.79,1.79-.78,3.01.02,5.41-.01,8.97-.12,10.68-.01.29.39.4.51.13,3.35-7.13,8.49-12.43,15.44-15.9,2.32-1.16,5.24-1.93,7.73-2.05.83-.04,1.55.57,1.64,1.41.67,6.67-1.23,14.02-4.84,19.82-4.75,7.62-11.96,13.5-19.91,17.19-.25.12-.41.38-.41.66v10.52c0,.37.5.48.67.15,3.33-6.59,8.29-11.61,14.89-15.07,2.46-1.29,4.84-2.02,7.14-2.18.93-.07,1.48.44,1.64,1.53,1.44,10.05-3.1,21.26-10,28.69-3.5,3.77-9.04,7.08-13.92,9.09-.25.1-.42.35-.42.62-.02,17.52-.01,29.01.03,34.46.03,3.33-1.33,5.1-4.08,5.34-2.86.25-4.17-1.2-4.79-3.76v-.08s0-35.79,0-35.79c0-.39-.24-.73-.6-.88-10.03-3.91-17.06-10.75-21.09-20.52-2.25-5.44-2.95-11.49-2.76-17.28.03-.96.85-1.69,1.81-1.62,1.65.13,3.26.61,4.83,1.42,7.71,3.98,13.68,8.5,17.55,15.88.17.32.64.18.62-.17l-.48-10.44c0-.2-.12-.36-.29-.45-10.16-4.89-18.72-11.91-22.82-22.57-1.88-4.89-2.56-9.98-2.01-15.26.02-.22.13-.43.31-.57.69-.55,1.57-.69,2.61-.43,5.92,1.51,11.07,4.7,15.3,8.66,2.19,2.05,4.27,4.96,6.24,8.72.14.27.39.55.76.83Z"/><path class="cls-2" d="M153.77,110.9c.03.31.43.42.62.17,4.46-6.24,11.8-13.05,20.03-13.39.74-.04,1.41.45,1.62,1.16.2.69.26,1.61.15,2.75-1.18,12.65-10.79,23.11-22.32,27.6-.24.1-.41.34-.41.59v8.79c0,.42.55.57.77.22,3.85-6.22,12.85-11.89,20.32-11.44.64.04,1.18.53,1.26,1.17.5,3.7-.41,6.53-1.7,10.29-2.96,8.6-11.34,15.83-20.02,19.03-.25.09-.42.34-.42.6-.02,9.56-.04,18.72-.06,27.46,0,2.72-1.2,4.35-3.58,4.91-4.45,1.05-5.51-2.79-5.55-6.29,0-.19.01-8.75.04-25.68,0-.25-.15-.48-.39-.57-11.14-4.59-18.71-12.1-21.27-23.93-.4-1.84-.46-3.98.03-5.85.15-.6.67-1.03,1.29-1.07,3.39-.22,6.47.5,9.25,2.15,4.19,2.49,7.88,5.85,11.07,10.06.18.23.54.1.54-.18v-8.56c0-.73-.42-1.39-1.07-1.69-2.28-1.06-4.57-2.33-6.87-3.81-7.87-5.05-12.87-12.12-15-21.22-.39-1.65-.43-3.26-.13-4.82.15-.78.79-1.36,1.58-1.44,7.7-.73,16.09,7.05,20.58,12.96.23.31.72.18.77-.2.36-2.97.31-5.8-.15-8.49-.15-.91-.71-2.15-1.66-3.72-6.18-10.23-3.47-23.82,2.88-33.27,1.06-1.58,3.02-3.57,4.94-1.81.95.87,1.74,1.81,2.34,2.81,5.87,9.64,7.66,21.05,2.8,31.27-.05.09-.1.19-.15.28-1.5,2.37-2.28,4.05-2.34,5.06-.15,2.39-.08,5.09.22,8.1Z"/></svg>